<svg width="185" height="74" viewBox="0 0 185 74" fill="none" xmlns="http://www.w3.org/2000/svg">
<rect width="185" height="74" rx="25" fill="#D92C04"/>
<path d="M26.93 47V44.3L34.25 36.83C36.03 35.05 36.92 33.51 36.92 32.21C36.92 31.19 36.61 30.4 35.99 29.84C35.39 29.26 34.62 28.97 33.68 28.97C31.92 28.97 30.62 29.84 29.78 31.58L26.87 29.87C27.53 28.47 28.46 27.41 29.66 26.69C30.86 25.97 32.19 25.61 33.65 25.61C35.49 25.61 37.07 26.19 38.39 27.35C39.71 28.51 40.37 30.09 40.37 32.09C40.37 34.23 39.18 36.51 36.8 38.93L32.06 43.67H40.76V47H26.93ZM57.3324 32.78C57.3324 34.38 56.9124 35.79 56.0724 37.01L49.4424 47H45.4824L50.2824 39.95H49.9224C47.7424 39.95 45.9524 39.29 44.5524 37.97C43.1724 36.63 42.4824 34.9 42.4824 32.78C42.4824 30.66 43.1724 28.94 44.5524 27.62C45.9524 26.28 47.7424 25.61 49.9224 25.61C52.1024 25.61 53.8824 26.28 55.2624 27.62C56.6424 28.94 57.3324 30.66 57.3324 32.78ZM45.9324 32.78C45.9324 33.94 46.3024 34.88 47.0424 35.6C47.8024 36.32 48.7624 36.68 49.9224 36.68C51.0824 36.68 52.0324 36.33 52.7724 35.63C53.5124 34.91 53.8824 33.96 53.8824 32.78C53.8824 31.6 53.5124 30.66 52.7724 29.96C52.0324 29.24 51.0824 28.88 49.9224 28.88C48.7624 28.88 47.8024 29.24 47.0424 29.96C46.3024 30.66 45.9324 31.6 45.9324 32.78ZM73.6801 32.78C73.6801 34.38 73.2601 35.79 72.4201 37.01L65.7901 47H61.8301L66.6301 39.95H66.2701C64.0901 39.95 62.3001 39.29 60.9001 37.97C59.5201 36.63 58.8301 34.9 58.8301 32.78C58.8301 30.66 59.5201 28.94 60.9001 27.62C62.3001 26.28 64.0901 25.61 66.2701 25.61C68.4501 25.61 70.2301 26.28 71.6101 27.62C72.9901 28.94 73.6801 30.66 73.6801 32.78ZM62.2801 32.78C62.2801 33.94 62.6501 34.88 63.3901 35.6C64.1501 36.32 65.1101 36.68 66.2701 36.68C67.4301 36.68 68.3801 36.33 69.1201 35.63C69.8601 34.91 70.2301 33.96 70.2301 32.78C70.2301 31.6 69.8601 30.66 69.1201 29.96C68.3801 29.24 67.4301 28.88 66.2701 28.88C65.1101 28.88 64.1501 29.24 63.3901 29.96C62.6501 30.66 62.2801 31.6 62.2801 32.78ZM97.5277 32.78C97.5277 34.38 97.1077 35.79 96.2677 37.01L89.6377 47H85.6777L90.4777 39.95H90.1177C87.9377 39.95 86.1477 39.29 84.7477 37.97C83.3677 36.63 82.6777 34.9 82.6777 32.78C82.6777 30.66 83.3677 28.94 84.7477 27.62C86.1477 26.28 87.9377 25.61 90.1177 25.61C92.2977 25.61 94.0777 26.28 95.4577 27.62C96.8377 28.94 97.5277 30.66 97.5277 32.78ZM86.1277 32.78C86.1277 33.94 86.4977 34.88 87.2377 35.6C87.9977 36.32 88.9577 36.68 90.1177 36.68C91.2777 36.68 92.2277 36.33 92.9677 35.63C93.7077 34.91 94.0777 33.96 94.0777 32.78C94.0777 31.6 93.7077 30.66 92.9677 29.96C92.2277 29.24 91.2777 28.88 90.1177 28.88C88.9577 28.88 87.9977 29.24 87.2377 29.96C86.4977 30.66 86.1277 31.6 86.1277 32.78ZM113.875 32.78C113.875 34.38 113.455 35.79 112.615 37.01L105.985 47H102.025L106.825 39.95H106.465C104.285 39.95 102.495 39.29 101.095 37.97C99.7154 36.63 99.0254 34.9 99.0254 32.78C99.0254 30.66 99.7154 28.94 101.095 27.62C102.495 26.28 104.285 25.61 106.465 25.61C108.645 25.61 110.425 26.28 111.805 27.62C113.185 28.94 113.875 30.66 113.875 32.78ZM102.475 32.78C102.475 33.94 102.845 34.88 103.585 35.6C104.345 36.32 105.305 36.68 106.465 36.68C107.625 36.68 108.575 36.33 109.315 35.63C110.055 34.91 110.425 33.96 110.425 32.78C110.425 31.6 110.055 30.66 109.315 29.96C108.575 29.24 107.625 28.88 106.465 28.88C105.305 28.88 104.345 29.24 103.585 29.96C102.845 30.66 102.475 31.6 102.475 32.78ZM130.133 44.42C128.693 46.4 126.673 47.39 124.073 47.39C121.473 47.39 119.443 46.4 117.983 44.42C116.543 42.44 115.823 39.8 115.823 36.5C115.823 33.2 116.543 30.56 117.983 28.58C119.443 26.6 121.473 25.61 124.073 25.61C126.673 25.61 128.693 26.6 130.133 28.58C131.593 30.56 132.323 33.2 132.323 36.5C132.323 39.8 131.593 42.44 130.133 44.42ZM124.073 44.03C125.633 44.03 126.823 43.38 127.643 42.08C128.463 40.78 128.873 38.92 128.873 36.5C128.873 34.08 128.463 32.22 127.643 30.92C126.823 29.62 125.633 28.97 124.073 28.97C122.533 28.97 121.343 29.62 120.503 30.92C119.683 32.22 119.273 34.08 119.273 36.5C119.273 38.92 119.683 40.78 120.503 42.08C121.343 43.38 122.533 44.03 124.073 44.03ZM151.61 39.35H147.32V41.36H154.37V43.7H147.32V47H143.87V43.7H141.47V41.36H143.87V39.35H141.47V36.26H143.87V26H151.61C153.51 26 155.12 26.66 156.44 27.98C157.76 29.28 158.42 30.87 158.42 32.75C158.42 34.61 157.76 36.18 156.44 37.46C155.12 38.72 153.51 39.35 151.61 39.35ZM147.32 29.24V36.26H151.61C152.55 36.26 153.34 35.92 153.98 35.24C154.64 34.56 154.97 33.73 154.97 32.75C154.97 31.77 154.64 30.94 153.98 30.26C153.34 29.58 152.55 29.24 151.61 29.24H147.32Z" fill="white"/>
</svg>
